<svg width="47" height="47" viewBox="0 0 47 47" fill="none" xmlns="http://www.w3.org/2000/svg">
<path d="M44.4286 33.6H3.57143C3.15466 33.6 2.75496 33.7686 2.46026 34.0686C2.16556 34.3687 2 34.7757 2 35.2L2 38.4C2 38.8243 2.16556 39.2313 2.46026 39.5314C2.75496 39.8314 3.15466 40 3.57143 40H44.4286C44.8453 40 45.245 39.8314 45.5397 39.5314C45.8344 39.2313 46 38.8243 46 38.4V35.2C46 34.7757 45.8344 34.3687 45.5397 34.0686C45.245 33.7686 44.8453 33.6 44.4286 33.6ZM44.4286 20.8H3.57143C3.15466 20.8 2.75496 20.9686 2.46026 21.2686C2.16556 21.5687 2 21.9757 2 22.4L2 25.6C2 26.0243 2.16556 26.4313 2.46026 26.7314C2.75496 27.0314 3.15466 27.2 3.57143 27.2H44.4286C44.8453 27.2 45.245 27.0314 45.5397 26.7314C45.8344 26.4313 46 26.0243 46 25.6V22.4C46 21.9757 45.8344 21.5687 45.5397 21.2686C45.245 20.9686 44.8453 20.8 44.4286 20.8ZM44.4286 8H3.57143C3.15466 8 2.75496 8.16857 2.46026 8.46863C2.16556 8.76869 2 9.17565 2 9.6L2 12.8C2 13.2243 2.16556 13.6313 2.46026 13.9314C2.75496 14.2314 3.15466 14.4 3.57143 14.4H44.4286C44.8453 14.4 45.245 14.2314 45.5397 13.9314C45.8344 13.6313 46 13.2243 46 12.8V9.6C46 9.17565 45.8344 8.76869 45.5397 8.46863C45.245 8.16857 44.8453 8 44.4286 8Z" fill="white"/>
</svg>
